<svg width="105" height="53" viewBox="0 0 105 53" fill="none" xmlns="http://www.w3.org/2000/svg">
<path d="M101.366 15.459C96.5622 25.0692 91.2289 34.457 85.3664 43.6223C79.5038 52.7876 71.7278 55.2346 62.0384 50.9634C52.3489 46.6922 44.8172 41.8871 39.4432 36.5481C34.0692 31.2091 27.3925 26.404 19.4129 22.1328C11.4333 17.8616 5.61153 10.2535 1.94744 -0.69144C-1.71664 -11.6364 -0.210292 -21.7805 6.46648 -31.1237C13.1432 -40.467 21.8149 -43.181 32.4815 -39.2657C43.148 -35.3505 51.779 -33.6598 58.3743 -34.1937C64.9696 -34.7276 72.6235 -33.8377 81.3359 -31.5242C90.0482 -29.2106 96.7657 -23.2042 101.488 -13.505C106.211 -3.80586 106.17 5.84884 101.366 15.459Z" fill="#E8E1C0"/>
</svg>
