<svg width="83" height="68" viewBox="0 0 83 68" fill="none" xmlns="http://www.w3.org/2000/svg">
<path d="M80.1276 40.8427C76.3301 47.7948 72.1143 54.5859 67.4801 61.2161C62.8459 67.8463 56.6992 69.6165 49.0399 66.5267C41.3806 63.4369 35.4269 59.9609 31.1789 56.0986C26.9309 52.2364 21.6531 48.7603 15.3454 45.6705C9.03779 42.5807 4.43578 37.077 1.53941 29.1594C-1.35696 21.2418 -0.166231 13.9035 5.1116 7.14453C10.3894 0.385577 17.2442 -1.57774 25.6758 1.25459C34.1075 4.08691 40.93 5.30995 46.1435 4.92373C51.357 4.5375 57.4072 5.18121 64.2941 6.85486C71.181 8.5285 76.491 12.8735 80.2241 19.89C83.9572 26.9064 83.925 33.8906 80.1276 40.8427Z" fill="#E8E1C0"/>
</svg>
