<svg width="80" height="137" viewBox="0 0 80 137" fill="none" xmlns="http://www.w3.org/2000/svg">
<path d="M157.616 97.5143C163.796 113.145 158.343 119.87 141.258 117.689C124.173 115.508 109.724 119.143 97.9094 128.594C86.0953 138.046 73.0998 139.227 58.9228 132.139C44.7459 125.05 29.9329 113.6 14.4836 97.7869C-0.965576 81.9742 -4.05542 63.9804 5.21411 43.8055C14.4836 23.6307 29.6602 13.4524 50.7439 13.2706C71.8275 13.0889 90.0939 9.72637 105.543 3.18318C120.992 -3.36002 133.443 0.184211 142.894 13.8159C152.345 27.4475 155.617 40.8974 152.709 54.1656C149.801 67.4337 151.436 81.8833 157.616 97.5143Z" fill="#E1CA53"/>
</svg>
