<svg width="304" height="248" viewBox="0 0 304 248" fill="none" xmlns="http://www.w3.org/2000/svg">
<path d="M300.286 176.379C292.002 206.062 274.169 226.771 246.787 238.506C219.405 250.241 194.094 250.931 170.854 240.577C147.614 230.222 121.613 228.727 92.8504 236.09C64.0879 243.453 43.609 234.594 31.4137 209.513C19.2184 184.432 9.55419 157.511 2.42109 128.748C-4.71201 99.9855 3.91674 77.0906 28.3073 60.0632C52.6979 43.0358 75.938 30.1502 98.0276 21.4064C120.117 12.6626 144.623 5.87464 171.545 1.04254C198.466 -3.78956 214.803 8.17564 220.556 36.9381C226.308 65.7006 243.106 88.7106 270.948 105.968C298.79 123.226 308.569 146.696 300.286 176.379Z" fill="#232018"/>
</svg>
