<svg width="420" height="433" viewBox="0 0 420 433" fill="none" xmlns="http://www.w3.org/2000/svg">
<path d="M52.7654 170.415C84.9642 138.806 109.163 111.68 125.363 89.0376C141.562 66.3948 162.29 48.6955 187.545 35.9396C212.8 23.1837 239.329 20.2169 267.132 27.039C294.935 33.8611 326.811 45.6924 362.762 62.533C398.712 79.3735 407.583 109.059 389.373 151.59C371.163 194.121 363.311 239.352 365.816 287.282C368.321 335.212 350.377 368.255 311.986 386.413C273.595 404.571 239.927 399.298 210.98 370.595C182.034 341.891 146.089 330.999 103.146 337.918C60.2033 344.836 33.0211 326.551 21.5995 283.062C10.178 239.573 20.5666 202.024 52.7654 170.415Z" fill="#E8E1C0"/>
</svg>
