<?xml version="1.0" encoding="UTF-8" standalone="no"?>
<svg
   xmlns:dc="http://purl.org/dc/elements/1.1/"
   xmlns:cc="http://creativecommons.org/ns#"
   xmlns:rdf="http://www.w3.org/1999/02/22-rdf-syntax-ns#"
   xmlns:svg="http://www.w3.org/2000/svg"
   xmlns="http://www.w3.org/2000/svg"
   xmlns:sodipodi="http://sodipodi.sourceforge.net/DTD/sodipodi-0.dtd"
   xmlns:inkscape="http://www.inkscape.org/namespaces/inkscape"
   width="385"
   height="377"
   viewBox="0 0 385 377"
   fill="none"
   version="1.1"
   id="svg4"
   sodipodi:docname="img-fundo-entrada.svg"
   inkscape:version="1.0.2-2 (e86c870879, 2021-01-15)">
  <metadata
     id="metadata10">
    <rdf:RDF>
      <cc:Work
         rdf:about="">
        <dc:format>image/svg+xml</dc:format>
        <dc:type
           rdf:resource="http://purl.org/dc/dcmitype/StillImage" />
        <dc:title></dc:title>
      </cc:Work>
    </rdf:RDF>
  </metadata>
  <defs
     id="defs8" />
  <sodipodi:namedview
     pagecolor="#ffffff"
     bordercolor="#666666"
     borderopacity="1"
     objecttolerance="10"
     gridtolerance="10"
     guidetolerance="10"
     inkscape:pageopacity="0"
     inkscape:pageshadow="2"
     inkscape:window-width="1366"
     inkscape:window-height="705"
     id="namedview6"
     showgrid="false"
     inkscape:zoom="2.5681293"
     inkscape:cx="327.1854"
     inkscape:cy="142.14577"
     inkscape:window-x="-8"
     inkscape:window-y="-8"
     inkscape:window-maximized="1"
     inkscape:current-layer="svg4" />
  <path
     d="m 38.447759,149.48922 c 32.1988,-31.609 56.3976,-58.735002 72.597601,-81.377402 16.199,-22.6428 36.927,-40.3421 62.182,-53.098 25.255,-12.7559003 51.784,-15.72270033 79.587,-8.9006003 27.803,6.8221003 59.679,18.6534003 95.63,35.4940003 35.95,16.8405 44.821,46.526 26.611,89.057002 -18.21,42.531 -26.062,87.762 -23.557,135.692 2.505,47.93 -15.439,80.973 -53.83,99.131 -38.391,18.158 -72.059,12.885 -101.006,-15.818 -28.946,-28.704 -64.891,-39.596 -107.834001,-32.677 -42.9427,6.918 -70.1249,-11.367 -81.5464995,-54.856 -11.4215,-43.489 -1.0329,-81.038 31.1658995,-112.647 z"
     fill="#e8e1c0"
     id="path2" />
</svg>
