<svg width="306" height="308" viewBox="0 0 306 308" fill="none" xmlns="http://www.w3.org/2000/svg">
<path d="M129.254 163.052C133.889 174.727 138.579 177.695 151.108 176.902C163.633 176.099 167.901 172.559 171.025 160.402C174.135 148.237 172.088 143.085 161.482 136.363C150.877 129.64 145.344 129.993 135.675 137.999C126.006 146.005 124.632 151.384 129.254 163.052Z" stroke="#353024"/>
<path d="M122.843 168.301C130.464 183.623 137.17 187.125 154.106 184.616C171.042 182.107 176.441 176.812 179.292 159.935C182.139 143.048 178.767 136.271 163.593 128.347C148.419 120.422 140.933 121.532 128.71 133.519C116.488 145.506 115.229 152.968 122.843 168.301Z" stroke="#353024"/>
<path d="M116.819 173.973C127.677 192.746 136.437 196.635 157.642 192.107C178.847 187.579 185.258 180.451 187.507 158.876C189.749 137.313 184.95 129.017 165.132 120.218C145.312 111.409 135.939 113.414 121.444 129.543C106.95 145.673 105.96 155.201 116.819 173.973Z" stroke="#353024"/>
<path d="M110.533 179.057C124.292 201.409 135.025 205.824 160.535 199.655C186.051 193.473 193.565 184.631 195.571 158.463C197.586 132.293 191.497 122.413 167.224 112.407C142.954 102.411 131.683 105.144 114.671 125.139C97.6597 145.133 96.7743 156.705 110.533 179.057Z" stroke="#353024"/>
<path d="M103.287 182.536C119.034 209.03 131.553 214.41 161.607 207.614C191.664 200.829 200.652 190.584 203.48 159.905C206.314 129.213 199.351 117.513 171.042 105.338C142.732 93.1633 129.446 96.1598 109.12 119.327C88.8002 142.482 87.5423 156.051 103.287 182.536Z" stroke="#353024"/>
<path d="M94.7762 183.689C111.174 215.034 125.189 221.984 160.066 216.069C194.956 210.16 205.893 198.98 211.048 163.973C216.206 128.975 208.948 115.123 177.254 99.3967C145.562 83.6802 130.14 86.2959 105.398 111.581C80.6462 136.869 78.3687 152.347 94.7762 183.689Z" stroke="#353024"/>
<path d="M85.2944 182.349C100.937 219.107 116.08 228.186 155.866 224.676C195.66 221.153 208.974 209.564 217.929 170.631C226.886 131.708 219.968 115.46 185.713 94.9131C151.457 74.3664 133.861 75.9208 103.742 102.149C73.6137 128.381 69.6613 145.587 85.2944 182.349Z" stroke="#353024"/>
<path d="M75.5783 179.215C89.4359 221.515 105.379 233.046 149.881 232.948C194.393 232.847 210.285 221.246 223.94 178.877C237.607 136.515 231.485 117.821 195.415 91.7337C159.349 65.6557 139.667 65.7011 103.72 91.9465C67.769 118.182 61.7301 136.913 75.5783 179.215Z" stroke="#353024"/>
<path d="M66.2924 175.851C78.2166 223.455 94.8572 237.378 143.818 240.742C192.769 244.108 211.152 232.587 229.481 187.064C247.809 141.54 242.546 120.496 204.913 88.9976C167.28 57.4992 145.631 56.0086 104.05 82.0617C62.4601 108.118 54.3587 128.249 66.2924 175.851Z" stroke="#353024"/>
<path d="M57.7185 174.264C68.7428 226.761 86.3298 242.67 139.653 248.403C192.989 254.143 213.559 242.336 235.487 193.381C257.427 144.432 252.548 121.23 212.774 85.2392C172.999 49.2486 149.423 46.7128 102.909 73.4215C56.3851 100.133 46.6847 121.769 57.7185 174.264Z" stroke="#353024"/>
<path d="M49.9521 176.24C62.1073 233.152 81.2385 250.354 139.131 256.397C197.02 262.431 219.293 249.547 242.928 196.356C266.55 143.158 261.183 117.991 217.9 79.0865C174.606 40.1752 149.013 37.5038 98.6354 66.6477C48.2481 95.7945 37.8035 119.315 49.9521 176.24Z" stroke="#353024"/>
<path d="M43.2564 182.639C59.0552 243.388 80.4895 261.001 143.151 264.752C205.81 268.493 229.19 253.546 252.114 195.114C275.034 136.673 268.052 109.826 219.555 69.9665C171.068 30.1037 143.365 28.4498 90.4708 62.255C37.5866 96.0572 27.4481 121.894 43.2564 182.639Z" stroke="#353024"/>
<path d="M38.0355 193.051C59.7764 256.779 84.1142 273.921 151.45 272.932C218.773 271.937 242.595 254.091 262.454 189.749C282.326 125.414 272.708 97.244 217.653 58.4726C162.607 19.6982 132.841 20.1376 78.9516 60.5135C25.0715 100.886 16.2851 129.325 38.0355 193.051Z" stroke="#353024"/>
</svg>
