<svg width="306" height="99" viewBox="0 0 306 99" fill="none" xmlns="http://www.w3.org/2000/svg">
<path d="M116.819 159.812C127.677 177.056 136.437 180.628 157.642 176.469C178.847 172.31 185.258 165.762 187.507 145.943C189.749 126.136 184.95 118.515 165.132 110.432C145.312 102.34 135.938 104.182 121.444 118.998C106.95 133.815 105.96 142.567 116.819 159.812Z" stroke="#353024"/>
<path d="M110.533 164.481C124.292 185.013 135.025 189.07 160.535 183.403C186.051 177.724 193.565 169.602 195.571 145.564C197.586 121.524 191.497 112.448 167.224 103.257C142.954 94.0742 131.683 96.5853 114.671 114.952C97.6597 133.318 96.7743 143.949 110.533 164.481Z" stroke="#353024"/>
<path d="M103.287 167.677C119.034 192.014 131.553 196.956 161.607 190.714C191.664 184.481 200.652 175.07 203.48 146.888C206.314 118.695 199.351 107.947 171.042 96.7633C142.732 85.5795 129.446 88.3321 109.12 109.614C88.8002 130.884 87.5423 143.348 103.287 167.677Z" stroke="#353024"/>
<path d="M94.7762 168.736C111.174 197.529 125.189 203.914 160.066 198.48C194.956 193.052 205.893 182.783 211.048 150.625C216.206 118.476 208.948 105.751 177.254 91.3055C145.562 76.8683 130.14 79.2712 105.398 102.498C80.6462 125.728 78.3687 139.945 94.7762 168.736Z" stroke="#353024"/>
<path d="M85.2944 167.505C100.937 201.271 116.08 209.611 155.866 206.387C195.66 203.151 208.974 192.505 217.929 156.741C226.886 120.986 219.968 106.061 185.713 87.1869C151.457 68.3127 133.861 69.7407 103.742 93.8342C73.6137 117.93 69.6613 133.736 85.2944 167.505Z" stroke="#353024"/>
<path d="M75.5783 164.627C89.4359 203.483 105.379 214.076 149.881 213.985C194.393 213.892 210.285 203.236 223.94 164.316C237.607 125.403 231.485 108.23 195.415 84.2664C159.349 60.3112 139.667 60.3528 103.72 84.4618C67.769 108.562 61.7301 125.767 75.5783 164.627Z" stroke="#353024"/>
<path d="M66.2924 161.536C78.2166 205.265 94.8572 218.055 143.818 221.144C192.769 224.237 211.152 213.653 229.481 171.836C247.809 130.019 242.546 110.687 204.913 81.7529C167.28 52.8186 145.631 51.4493 104.05 75.3816C62.4601 99.3168 54.3587 117.809 66.2924 161.536Z" stroke="#353024"/>
<path d="M57.7186 160.078C68.7429 208.302 86.3299 222.916 139.653 228.183C192.99 233.455 213.559 222.609 235.487 177.639C257.427 132.675 252.548 111.361 212.774 78.3005C172.999 45.2396 149.423 42.9103 102.909 67.4448C56.3852 91.9821 46.6847 111.857 57.7186 160.078Z" stroke="#353024"/>
<path d="M49.9522 161.893C62.1073 214.173 81.2386 229.975 139.131 235.526C197.02 241.069 219.293 229.233 242.928 180.372C266.55 131.505 261.183 108.386 217.9 72.6487C174.606 36.9049 149.013 34.451 98.6355 61.2224C48.2481 87.9966 37.8035 109.602 49.9522 161.893Z" stroke="#353024"/>
<path d="M43.2564 167.772C59.0552 223.575 80.4895 239.755 143.151 243.2C205.81 246.637 229.19 232.907 252.114 179.231C275.034 125.547 268.052 100.886 219.555 64.271C171.068 27.6532 143.365 26.1339 90.4708 57.1873C37.5866 88.2379 27.4481 111.971 43.2564 167.772Z" stroke="#353024"/>
<path d="M38.0356 177.336C59.7765 235.877 84.1142 251.623 151.45 250.715C218.773 249.801 242.595 233.407 262.454 174.303C282.326 115.205 272.708 89.3282 217.653 53.7129C162.607 18.0948 132.841 18.4984 78.9516 55.5876C25.0715 92.6739 16.2851 118.798 38.0356 177.336Z" stroke="#353024"/>
</svg>
