<svg width="156" height="120" viewBox="0 0 156 120" fill="none" xmlns="http://www.w3.org/2000/svg">
<path d="M99.2864 7.37432C102.847 16.4226 106.449 18.7234 116.073 18.1085C125.695 17.4863 128.973 14.7429 131.372 5.32002C133.762 -4.10794 132.189 -8.10095 124.043 -13.3114C115.896 -18.5218 111.646 -18.2482 104.219 -12.0432C96.7916 -5.83824 95.7356 -1.66893 99.2864 7.37432Z" stroke="#353024"/>
<path d="M94.3619 11.4427C100.215 23.3175 105.367 26.0322 118.376 24.0874C131.385 22.1425 135.533 18.0387 137.723 4.95818C139.91 -8.12977 137.32 -13.3823 125.664 -19.5245C114.007 -25.6666 108.257 -24.8062 98.8686 -15.5158C89.4798 -6.22536 88.5133 -0.441917 94.3619 11.4427Z" stroke="#353024"/>
<path d="M89.734 15.8387C98.0748 30.3884 104.804 33.4023 121.092 29.8931C137.381 26.3839 142.306 20.8595 144.033 4.13736C145.755 -12.5751 142.069 -19.0048 126.846 -25.8246C111.621 -32.6518 104.421 -31.0984 93.2872 -18.597C82.1535 -6.09553 81.3933 1.28898 89.734 15.8387Z" stroke="#353024"/>
<path d="M84.9061 19.7787C95.4751 37.1026 103.719 40.5251 123.315 35.7436C142.915 30.9524 148.687 24.0991 150.228 3.81772C151.776 -16.4661 147.098 -24.1231 128.453 -31.8783C109.81 -39.6261 101.152 -37.5073 88.0846 -22.0108C75.0172 -6.51421 74.337 2.45487 84.9061 19.7787Z" stroke="#353024"/>
<path d="M79.3396 22.4751C91.4361 43.0094 101.052 47.1791 124.138 41.9124C147.226 36.653 154.13 28.7126 156.302 4.93484C158.479 -18.8526 153.131 -27.9211 131.385 -37.3573C109.639 -46.7934 99.4334 -44.4709 83.8201 -26.5148C68.2117 -8.56847 67.2455 1.94819 79.3396 22.4751Z" stroke="#353024"/>
<path d="M72.8021 23.3687C85.3982 47.6628 96.1635 53.0497 122.954 48.465C149.755 43.8852 158.156 35.2207 162.116 8.08792C166.079 -19.0375 160.503 -29.7735 136.157 -41.9621C111.813 -54.1433 99.9665 -52.1159 80.961 -32.5186C61.9482 -12.919 60.1987 -0.923029 72.8021 23.3687Z" stroke="#353024"/>
<path d="M65.5187 22.33C77.5346 50.8197 89.1663 57.8562 119.728 55.1358C150.296 52.4057 160.523 43.4237 167.402 13.2483C174.282 -16.9196 168.968 -29.5124 142.655 -45.4373C116.341 -61.3621 102.825 -60.1573 79.6893 -39.8288C56.5463 -19.4979 53.5102 -6.16203 65.5187 22.33Z" stroke="#353024"/>
<path d="M58.0553 19.9014C68.7001 52.6859 80.9469 61.6234 115.131 61.5472C149.323 61.4687 161.53 52.4777 172.019 19.6397C182.517 -13.1934 177.815 -27.6822 150.108 -47.9014C122.403 -68.1133 107.285 -68.0781 79.6721 -47.7365C52.0566 -27.4023 47.4179 -12.8854 58.0553 19.9014Z" stroke="#353024"/>
<path d="M50.9224 17.2938C60.082 54.1901 72.8644 64.9808 110.473 67.5878C148.075 70.1971 162.196 61.2674 176.275 25.9844C190.354 -9.2985 186.311 -25.609 157.403 -50.022C128.496 -74.4349 111.866 -75.5902 79.9261 -55.3976C47.9786 -35.2027 41.7555 -19.6002 50.9224 17.2938Z" stroke="#353024"/>
<path d="M44.3364 16.0638C52.8047 56.7521 66.3141 69.0826 107.275 73.526C148.245 77.9745 164.045 68.8232 180.889 30.8804C197.742 -7.05739 193.994 -25.0404 163.442 -52.935C132.889 -80.8297 114.779 -82.7951 79.0492 -62.0944C43.3122 -41.3914 35.8608 -24.6222 44.3364 16.0638Z" stroke="#353024"/>
<path d="M38.3707 17.5951C47.7076 61.7053 62.4033 75.0378 106.873 79.7217C151.341 84.3983 168.45 74.4123 186.605 33.1862C204.75 -8.04499 200.627 -27.5505 167.38 -57.7038C134.123 -87.8621 114.464 -89.9326 75.7667 -67.3445C37.0617 -44.7542 29.0387 -26.5248 38.3707 17.5951Z" stroke="#353024"/>
<path d="M33.2273 22.5553C45.3631 69.6388 61.8278 83.2903 109.961 86.1971C158.093 89.0966 176.052 77.5122 193.661 32.2241C211.267 -13.0713 205.903 -33.8787 168.651 -64.7721C131.405 -95.6679 110.125 -96.9498 69.495 -70.7489C28.8721 -44.5504 21.0842 -24.5259 33.2273 22.5553Z" stroke="#353024"/>
<path d="M29.2169 30.6247C45.9172 80.0176 64.6122 93.3033 116.336 92.5373C168.05 91.7662 186.349 77.9339 201.604 28.0659C216.868 -21.7971 209.48 -43.6306 167.19 -73.6805C124.907 -103.733 102.042 -103.392 60.6466 -72.0987C19.2586 -40.8076 12.5094 -18.7659 29.2169 30.6247Z" stroke="#353024"/>
</svg>
