<svg width="135" height="116" viewBox="0 0 135 116" fill="none" xmlns="http://www.w3.org/2000/svg">
<path d="M133.137 68.5197C129.11 80.2605 120.811 87.9789 108.24 91.675C95.6703 95.3712 83.5272 101.242 71.8112 109.286C60.0953 117.331 47.8302 118.146 35.0159 111.732C22.2015 105.318 13.6587 96.2952 9.38723 84.6632C5.11579 73.0312 2.12579 61.5623 0.41721 50.2564C-1.29136 38.9505 2.24783 29.1666 11.0348 20.9046C19.8217 12.6426 29.7681 7.20709 40.8738 4.59804C51.9796 1.989 63.2684 0.467052 74.7402 0.0322105C86.2121 -0.402631 95.3041 3.5653 102.016 11.936C108.729 20.3067 116.6 28.8948 125.631 37.7003C134.662 46.5059 137.164 56.779 133.137 68.5197Z" fill="#C4C4C4"/>
</svg>
