<svg width="146" height="129" viewBox="0 0 146 129" fill="none" xmlns="http://www.w3.org/2000/svg">
<path d="M135.757 95.2346C139.731 108.921 134.629 114.183 120.45 111.019C106.272 107.855 93.855 109.81 83.1985 116.883C72.5419 123.957 61.5365 123.95 50.1824 116.864C38.8282 109.778 27.2792 98.9564 15.5353 84.3995C3.7914 69.8426 2.5964 54.398 11.9503 38.0659C21.3042 21.7337 34.8411 14.3058 52.561 15.7822C70.2809 17.2586 85.8824 15.8293 99.3654 11.4944C112.849 7.1594 123.028 11.117 129.905 23.3671C136.782 35.6172 138.483 47.236 135.008 58.2234C131.534 69.2108 131.784 81.5479 135.757 95.2346Z" fill="#C4C4C4"/>
</svg>
