<svg width="135" height="116" viewBox="0 0 135 116" fill="none" xmlns="http://www.w3.org/2000/svg">
<path d="M132.881 81.7298C138.029 94.3454 133.796 101.513 120.183 103.234C106.57 104.954 95.6451 107.42 87.4086 110.631C79.172 113.842 69.9059 115.62 59.6102 115.964C49.3145 116.308 37.8176 114.186 25.1196 109.599C12.4216 105.011 4.5854 96.0657 1.61109 82.7619C-1.36323 69.4582 -0.21926 56.8426 5.04298 44.915C10.3052 32.9875 19.3426 26.1063 32.155 24.2713C44.9674 22.4363 55.3203 17.6194 63.2137 9.82065C71.107 2.0219 80.8308 -1.13201 92.3848 0.35893C103.939 1.84987 113.377 7.18284 120.698 16.3578C128.019 25.5328 130.593 35.568 128.42 46.4633C126.246 57.3587 127.733 69.1141 132.881 81.7298Z" fill="#C4C4C4"/>
</svg>
