<svg width="135" height="116" viewBox="0 0 135 116" fill="none" xmlns="http://www.w3.org/2000/svg">
<path d="M130.537 80.3784C128.681 93.5083 121.081 101.7 107.738 104.955C94.3948 108.209 82.3861 111.408 71.7116 114.55C61.0372 117.692 51.581 115.728 43.3431 108.658C35.1052 101.588 25.8811 94.8549 15.6708 88.4583C5.46043 82.0617 0.23923 72.7474 0.0071769 60.5153C-0.224876 48.2832 5.17036 39.3616 16.1929 33.7505C27.2154 28.1395 36.9036 23.7628 45.2576 20.6206C53.6115 17.4784 64.1119 12.3724 76.7588 5.30245C89.4057 -1.76748 102.517 -1.76748 116.092 5.30245C129.667 12.3724 135.932 23.3701 134.888 38.2955C133.844 53.2209 132.394 67.2485 130.537 80.3784Z" fill="#C4C4C4"/>
</svg>
